<?xml version="1.0" encoding="iso-8859-1"?>
<!-- Generator: Adobe Illustrator 19.0.0, SVG Export Plug-In . SVG Version: 6.00 Build 0)  -->
<svg version="1.1" id="Layer_1" xmlns="http://www.w3.org/2000/svg" xmlns:xlink="http://www.w3.org/1999/xlink" x="0px" y="0px"
	 viewBox="0 0 512 512" style="enable-background:new 0 0 512 512;" xml:space="preserve">
<g>
	<path style="fill:#507C5C;" d="M367.666,376.844H209.685c-24.901,0-45.16-20.259-45.16-45.161V309.11l-53.159-53.157
		c-16.261-16.263-16.261-42.723,0-58.986c14.439-14.439,36.92-16.057,53.159-4.857V74.398c0-22.565,18.35-41.272,40.906-41.701
		c5.014-0.096,9.962,0.723,14.59,2.384c3.17-19.492,20.066-34.689,40.372-35.074c11.087-0.206,21.664,4.025,29.717,11.929
		c1.609,1.579,3.083,3.279,4.41,5.08c6.105-3.747,13.23-5.968,20.835-6.112c11.054-0.216,21.662,4.025,29.717,11.929
		c8.13,7.977,12.794,19.054,12.794,30.388v3.468c4.472-1.536,9.248-2.284,14.055-2.197c22.558,0.428,40.908,19.135,40.908,41.701
		v75.856c0,7.95-6.446,14.394-14.394,14.394s-14.394-6.444-14.394-14.394V96.191c0-6.99-5.681-12.784-12.664-12.918
		c-3.278-0.06-6.515,1.249-9.007,3.694c-2.649,2.6-4.169,6.185-4.169,9.839v75.241c0,7.95-6.446,14.394-14.394,14.394h-0.334
		c-7.949,0-14.394-6.444-14.394-14.394V53.221c0-3.655-1.52-7.24-4.169-9.839c-2.492-2.444-5.686-3.774-9.008-3.694
		c-6.983,0.132-12.663,5.928-12.663,12.918v119.442c0,7.95-6.446,14.394-14.394,14.394h-0.334c-7.949,0-14.394-6.444-14.394-14.394
		V42.323c0-3.653-1.52-7.239-4.169-9.839c-2.492-2.444-5.736-3.764-9.008-3.694c-6.983,0.132-12.663,5.928-12.663,12.918v130.339
		c0,7.95-6.446,14.394-14.394,14.394h-0.334c-7.949,0-14.394-6.444-14.394-14.394V75.012c0-3.653-1.52-7.239-4.169-9.839
		c-2.49-2.444-5.728-3.764-9.008-3.694c-6.983,0.132-12.663,5.928-12.663,12.918v151.495c0,5.821-3.508,11.071-8.886,13.299
		c-5.379,2.228-11.57,0.996-15.687-3.119l-18.746-18.744c-2.44-2.44-5.684-3.784-9.136-3.784c-3.449,0-6.693,1.344-9.135,3.784
		c-5.038,5.037-5.038,13.233,0,18.269l57.374,57.374c2.699,2.699,4.216,6.361,4.216,10.178v28.536
		c0,9.027,7.344,16.372,16.371,16.372h157.981c7.949,0,14.394,6.444,14.394,14.394C382.06,370.4,375.616,376.844,367.666,376.844z"
		/>
	<path style="fill:#507C5C;" d="M398.432,290.462c-7.949,0-14.394-6.444-14.394-14.394v-42.844c0-7.95,6.446-14.394,14.394-14.394
		s14.394,6.444,14.394,14.394v42.844C412.827,284.017,406.382,290.462,398.432,290.462z"/>
</g>
<path style="fill:#CFF09E;" d="M357.25,497.605H220.101c-22.745,0-41.183-18.438-41.183-41.183V337.715h219.513v118.708
	C398.432,479.168,379.995,497.605,357.25,497.605z"/>
<path style="fill:#507C5C;" d="M357.251,512H220.102c-30.644,0-55.576-24.931-55.576-55.577V337.715
	c0-7.95,6.446-14.395,14.394-14.395h219.513c7.949,0,14.395,6.444,14.395,14.395v118.708C412.827,487.069,387.896,512,357.251,512z
	 M193.314,352.109v104.314c0,14.772,12.016,26.788,26.787,26.788H357.25c14.772,0,26.787-12.017,26.787-26.788V352.109
	L193.314,352.109L193.314,352.109z"/>
<g>
</g>
<g>
</g>
<g>
</g>
<g>
</g>
<g>
</g>
<g>
</g>
<g>
</g>
<g>
</g>
<g>
</g>
<g>
</g>
<g>
</g>
<g>
</g>
<g>
</g>
<g>
</g>
<g>
</g>
</svg>
